'S1 o2v15l4T156
'S1 gb>de fed<b gb>de fed<b
'S1 >cega a+age <gb>de fed<b
'S1 >df+af+ cege <gb>cc+
'S1 d.dd8a

'S2 o4v13l8T156
'S2 rg4. g4e4 ge4g& g<a+b>d&
'S2 dg4. g4e4 ge4g& g<a+b>d&
'S2 dg4. g4e4 ge4g& g<a+b>d&
'S2 dg4. g4e4 ge4g& gc+df+
'S2 b+aba& a<b>ce a+gag& g<a+b>d
'S2 g4f4 e4d+4 dccd& d4.r

'S3 o4v13l8T156
'S3 rb4. b4b4 bb4b& b4.r
'S3 rb4. b4b4 bb4b& b4.r
'S3 ra+4. a+4a+4 a+a+4a+& a+4.r
'S3 rb4. b4b4 bb4b& b4.r
'S3 a4a4 a4a4 c4c4 c4c4
'S3 d4d4 c4c+4 deff+& f+4.r
